<svg xmlns="http://www.w3.org/2000/svg" width="318" height="90" viewBox="0 0 318 90" fill="none"><g clip-path="url(#clip0_9_2)"><path d="M43.4826 0.544453L3.4074 12.4152L1.19697 14.0653C-0.407 15.2588 -0.39902 17.6698 1.21293 18.8552L3.567 20.5934L31.0818 26.9533C32.2469 27.2257 33.4598 26.9533 34.4174 26.2404L44.7434 18.3827C46.108 17.3414 47.9992 17.3253 49.3877 18.3346L59.6579 25.8239C61.0065 26.8091 62.7381 27.1055 64.3341 26.6329L89.5906 19.1276L93.6683 17.3734C95.5995 16.268 95.5436 13.4565 93.5726 12.4232L89.7422 10.8613L50.6326 0.440324C48.2865 -0.184454 45.8127 -0.152414 43.4906 0.536443L43.4826 0.544453Z" fill="#274160"></path><mask id="mask0_9_2" style="mask-type:luminance" maskUnits="userSpaceOnUse" x="21" y="20" width="55" height="70"><path d="M46.4751 20.922L37.6892 28.0269C37.2184 28.4114 36.9231 28.9721 36.8832 29.5728C36.572 33.8581 35.7022 52.5454 34.0424 58.7131C32.2628 65.2973 25.6634 79.547 21.7453 84.9938C21.482 85.3622 21.2745 86.0271 21.2745 86.4756V90H75.0033V86.2914C75.0033 85.7067 74.74 84.8496 74.4128 84.369C70.1116 78.0011 64.0309 64.1919 62.1077 57.7759C60.1846 51.3599 58.3013 33.2334 57.8545 28.8199C57.7906 28.2031 57.4714 27.6344 56.9687 27.2659L48.2626 20.874C47.7279 20.4815 46.9938 20.4975 46.4751 20.914V20.922Z" fill="white"></path></mask><g mask="url(#mask0_9_2)"><path d="M48.9409 57.1031L65.8663 67.7003L62.9376 60.299L62.1077 57.7759L60.4 49.3174L48.9409 57.1031Z" fill="#74849D"></path><path d="M60.4718 50.3026L51.8695 57.5436L35.8298 45.1442L36.9071 29.2284C36.9231 29.0201 37.1066 28.4835 37.2662 28.3553L46.5948 20.866C47.0496 20.4975 47.696 20.4815 48.1668 20.8339L57.2958 27.5623C57.5273 27.7385 57.8225 28.3553 57.8544 28.6436L60.4798 50.3026H60.4718Z" fill="#6D8AB6"></path><path d="M51.8695 57.5436L24.7138 80.1638L30.8663 67.3879L33.8189 59.474L34.9042 54.0112L35.8298 45.1442L51.8695 57.5436Z" fill="#4875A9"></path><path d="M51.8695 57.5436L65.8663 67.7002L69.4173 75.4299L74.4048 84.361L74.9953 90H21.2665V86.4756L24.7138 80.1638L51.8695 57.5436Z" fill="#3E5F84"></path></g><path d="M87.851 37.4226H81.906C80.3419 37.4226 78.0596 36.2371 78.0596 34.3227C78.0596 32.4083 80.3419 31.6073 81.906 31.6073H99.9805C101.545 31.6073 103.915 32.4083 103.915 34.3227C103.915 36.2371 101.545 37.4226 99.9805 37.4226H94.0354V62.5418C94.0354 64.6565 92.6709 66.3305 90.9392 66.3305C89.2076 66.3305 87.843 64.6565 87.843 62.5418V37.4226H87.851Z" fill="#274160"></path><path d="M108.511 62.5018V35.4201C108.511 33.2894 109.844 31.5993 111.519 31.5993H126.681C128.166 31.5993 129.379 33.1372 129.379 35.0196C129.379 36.9019 128.166 38.3918 126.681 38.3918H114.488V45.4325H122.755C124.239 45.4325 125.452 46.9705 125.452 48.8528C125.452 50.7351 124.239 52.225 122.755 52.225H114.488V59.5141H126.881C128.365 59.5141 129.578 61.052 129.578 62.9343C129.578 64.8167 128.365 66.3065 126.881 66.3065H111.519C109.836 66.3065 108.511 64.6164 108.511 62.4858V62.5018Z" fill="#274160"></path><path d="M166.23 35.1477C166.23 33.0571 166.661 31.5993 168.624 31.4071H169.326C170.691 31.4071 171.64 32.2321 172.223 33.3535L180.713 48.0678L189.404 33.2974C190.066 32.0319 190.976 31.3991 192.26 31.3991H192.963C194.742 31.3991 195.205 33.0491 195.205 35.1397V62.1493C195.205 64.2399 194.487 65.882 192.707 65.89C190.497 65.898 189.946 64.1919 189.946 62.1493V43.7585L183.283 53.859C182.621 55.0205 181.791 55.7574 180.634 55.7574C179.477 55.7574 178.647 55.0285 177.984 53.859L171.576 43.9026V62.2375C171.576 64.28 171.066 65.7859 169.334 65.882C166.014 66.0582 166.174 63.479 166.23 62.2375V35.1317V35.1477Z" fill="#274160"></path><path d="M201.214 60.8037L210.654 34.0424C211.308 32.2001 212.513 31.0787 214.133 31.0787H214.484C216.112 31.0787 217.269 32.1921 217.932 34.0424L227.372 60.8037C227.563 61.3403 227.683 61.8209 227.683 62.3095C227.683 64.304 226.446 65.906 224.858 65.906C223.462 65.906 222.536 64.8887 221.994 63.3348L220.174 57.9922H208.252L206.353 63.5751C205.85 65.0329 204.845 65.906 203.608 65.906C202.06 65.906 200.863 64.3521 200.863 62.4057C200.863 61.869 201.014 61.3403 201.214 60.8037ZM217.972 51.3839L214.221 40.162L210.47 51.3839H217.98H217.972Z" fill="#274160"></path><path d="M280.279 60.8037L289.719 34.0424C290.374 32.2001 291.578 31.0787 293.198 31.0787H293.55C295.177 31.0787 296.335 32.1921 296.997 34.0424L306.437 60.8037C306.629 61.3403 306.748 61.8209 306.748 62.3095C306.748 64.304 305.511 65.906 303.923 65.906C302.527 65.906 301.601 64.8887 301.059 63.3348L299.239 57.9922H287.317L285.418 63.5751C284.915 65.0329 283.91 65.906 282.673 65.906C281.125 65.906 279.928 64.3521 279.928 62.4057C279.928 61.869 280.079 61.3403 280.279 60.8037ZM297.037 51.3839L293.286 40.162L289.536 51.3839H297.045H297.037Z" fill="#4875A9"></path><path d="M272.666 57.6397C274.525 57.6397 275.898 59.2578 275.898 61.3644V61.4525C275.898 63.5511 274.525 65.1771 272.666 65.1771C270.807 65.1771 269.434 63.5591 269.434 61.4525V61.3644C269.434 59.2658 270.807 57.6397 272.666 57.6397Z" fill="#4875A9"></path><path d="M314.768 58.3766C316.627 58.3766 318 59.9947 318 62.1013V62.1894C318 64.288 316.627 65.914 314.768 65.914C312.909 65.914 311.536 64.296 311.536 62.1894V62.1013C311.536 60.0027 312.909 58.3766 314.768 58.3766Z" fill="#4875A9"></path><path d="M86.7258 80.8926C86.7258 76.1507 88.7926 73.6036 92.1841 73.6036C95.5756 73.6036 96.988 76.0066 96.988 77.4243C96.988 77.937 96.597 78.0571 96.4374 78.0571C95.9905 78.0571 95.9506 77.6486 95.7032 77.0559C95.3122 76.1507 94.602 74.9653 92.1841 74.9653C89.3831 74.9653 87.851 77.0399 87.851 80.9407C87.851 84.8416 89.3831 86.9161 92.208 86.9161C94.618 86.9161 95.3122 85.7227 95.7032 84.8255C95.9666 84.2088 96.0703 83.8243 96.4773 83.8243C96.6848 83.8243 96.988 83.9444 96.988 84.4571C96.988 85.8348 95.6155 88.2778 92.1841 88.2778C88.7527 88.2778 86.7258 85.7307 86.7258 80.9087V80.8926Z" fill="black"></path><path d="M105.223 80.8926C105.223 76.335 107.25 73.6036 110.642 73.6036C114.033 73.6036 116.076 76.335 116.076 80.9327C116.076 85.5304 114.033 88.2618 110.642 88.2618C107.25 88.2618 105.223 85.5304 105.223 80.8926ZM114.975 80.9327C114.975 77.2401 113.379 74.9412 110.642 74.9412C107.905 74.9412 106.325 77.2401 106.325 80.9327C106.325 84.6253 107.897 86.9242 110.642 86.9242C113.387 86.9242 114.975 84.6253 114.975 80.9327Z" fill="black"></path><path d="M124.814 87.6451V74.5728C124.814 74.0201 125.205 73.6116 125.692 73.6116C125.995 73.6116 126.306 73.7958 126.45 74.1082L132.299 86.3795V74.2284C132.299 73.8599 132.563 73.6116 132.834 73.6116C133.137 73.6116 133.384 73.8599 133.384 74.2284V87.2205C133.384 87.9975 132.993 88.2698 132.523 88.2698C132.275 88.2698 131.948 88.1497 131.765 87.7732L125.899 75.6461V87.6531C125.899 87.9815 125.652 88.2698 125.349 88.2698C125.061 88.2698 124.814 87.9815 124.814 87.6531V87.6451Z" fill="black"></path><path d="M142.17 84.4411C142.17 83.9925 142.394 83.7041 142.705 83.7041C143.072 83.7041 143.216 84.0326 143.479 84.7054C143.83 85.5865 144.54 86.9242 146.751 86.9242C148.714 86.9242 150.102 85.7947 150.102 83.8083C150.102 81.8218 148.49 81.6135 146.623 81.4053C144.413 81.157 142.577 80.6844 142.577 77.6486C142.577 75.2296 144.293 73.6036 146.831 73.6036C149.751 73.6036 151.044 75.4298 151.044 76.7195C151.044 77.128 150.797 77.3362 150.557 77.3362C150.294 77.3362 150.15 77.0879 149.863 76.5352C149.456 75.7583 148.818 74.9332 146.902 74.9332C144.987 74.9332 143.71 75.9986 143.71 77.6406C143.71 79.7152 145.083 79.8754 146.839 80.0997C149.025 80.364 151.236 80.6924 151.236 83.7522C151.236 86.812 149.153 88.2458 146.719 88.2458C143.303 88.2458 142.178 85.3142 142.178 84.425L142.17 84.4411Z" fill="black"></path><path d="M161.777 87.6451V75.2056H158.952C158.625 75.2056 158.338 74.9172 158.338 74.5247C158.338 74.1323 158.625 73.8439 158.952 73.8439H165.655C165.982 73.8439 166.27 74.1323 166.27 74.5247C166.27 74.9172 165.982 75.2056 165.655 75.2056H162.854V87.6451C162.854 88.0135 162.591 88.2618 162.304 88.2618C162.016 88.2618 161.769 88.0135 161.769 87.6451H161.777Z" fill="black"></path><path d="M174.393 87.6451V74.4687C174.393 74.1403 174.641 73.8519 175.008 73.8519H177.873C180.49 73.8519 182.062 75.1255 182.062 77.8969C182.062 79.4589 181.384 80.9167 179.979 81.5495C180.61 81.8539 181.001 82.5988 181.224 83.4559L182.246 87.4128C182.365 87.9094 182.078 88.2538 181.711 88.2538C181.487 88.2538 181.24 88.1337 181.16 87.8053L180.035 83.4318C179.812 82.5667 179.357 82.2383 178.375 82.1823L175.471 82.0221V87.6451C175.471 88.0135 175.207 88.2618 174.92 88.2618C174.633 88.2618 174.385 88.0135 174.385 87.6451H174.393ZM175.479 80.7885H177.928C179.381 80.7885 180.953 80.2358 180.953 77.937C180.953 75.7583 179.317 75.2056 177.992 75.2056H175.479V80.7885Z" fill="black"></path><path d="M190.808 83.9765V74.2284C190.808 73.8599 191.071 73.6116 191.359 73.6116C191.646 73.6116 191.893 73.8599 191.893 74.2284V83.8964C191.893 86.1953 193.649 86.9162 194.997 86.9162C196.346 86.9162 198.126 86.1953 198.126 83.8964L198.102 74.2284C198.102 73.8599 198.365 73.6116 198.652 73.6116C198.94 73.6116 199.187 73.8599 199.187 74.2284V83.9765C199.187 86.0671 198.205 88.2618 194.997 88.2618C191.79 88.2618 190.808 86.1071 190.808 83.9765Z" fill="black"></path><path d="M207.821 80.8926C207.821 76.1507 209.888 73.6036 213.279 73.6036C216.671 73.6036 218.083 76.0066 218.083 77.4243C218.083 77.937 217.692 78.0571 217.533 78.0571C217.086 78.0571 217.038 77.6486 216.799 77.0559C216.408 76.1507 215.697 74.9653 213.279 74.9653C210.478 74.9653 208.946 77.0399 208.946 80.9407C208.946 84.8416 210.478 86.9161 213.303 86.9161C215.713 86.9161 216.408 85.7227 216.799 84.8255C217.062 84.2088 217.166 83.8243 217.573 83.8243C217.78 83.8243 218.083 83.9444 218.083 84.4571C218.083 85.8348 216.711 88.2778 213.279 88.2778C209.848 88.2778 207.821 85.7307 207.821 80.9087V80.8926Z" fill="black"></path><path d="M226.319 80.8926C226.319 76.1507 228.385 73.6036 231.777 73.6036C235.168 73.6036 236.581 76.0066 236.581 77.4243C236.581 77.937 236.19 78.0571 236.03 78.0571C235.583 78.0571 235.535 77.6486 235.296 77.0559C234.905 76.1507 234.195 74.9653 231.777 74.9653C228.976 74.9653 227.444 77.0399 227.444 80.9407C227.444 84.8416 228.976 86.9161 231.801 86.9161C234.211 86.9161 234.905 85.7227 235.296 84.8255C235.559 84.2088 235.663 83.8243 236.07 83.8243C236.278 83.8243 236.581 83.9444 236.581 84.4571C236.581 85.8348 235.208 88.2778 231.777 88.2778C228.346 88.2778 226.319 85.7307 226.319 80.9087V80.8926Z" fill="black"></path><path d="M245.087 87.6451V74.2203C245.087 73.8519 245.351 73.6036 245.638 73.6036C245.925 73.6036 246.173 73.8519 246.173 74.2203V87.6451C246.173 88.0135 245.909 88.2618 245.638 88.2618C245.335 88.2618 245.087 88.0135 245.087 87.6451Z" fill="black"></path><path d="M254.903 80.8926C254.903 76.335 256.93 73.6036 260.321 73.6036C263.713 73.6036 265.763 76.335 265.763 80.9327C265.763 85.5304 263.721 88.2618 260.321 88.2618C256.922 88.2618 254.903 85.5304 254.903 80.8926ZM264.654 80.9327C264.654 77.2401 263.058 74.9412 260.321 74.9412C257.584 74.9412 256.004 77.2401 256.004 80.9327C256.004 84.6253 257.576 86.9242 260.321 86.9242C263.066 86.9242 264.654 84.6253 264.654 80.9327Z" fill="black"></path><path d="M274.485 87.6451V74.5728C274.485 74.0201 274.876 73.6116 275.363 73.6116C275.667 73.6116 275.978 73.7958 276.121 74.1082L281.971 86.3795V74.2284C281.971 73.8599 282.234 73.6116 282.505 73.6116C282.809 73.6116 283.056 73.8599 283.056 74.2284V87.2205C283.056 87.9975 282.665 88.2698 282.194 88.2698C281.947 88.2698 281.62 88.1497 281.436 87.7732L275.571 75.6461V87.6531C275.571 87.9815 275.323 88.2698 275.02 88.2698C274.733 88.2698 274.485 87.9815 274.485 87.6531V87.6451Z" fill="black"></path><path d="M292.911 88.0135C292.544 88.0135 292.297 87.7252 292.297 87.3968V74.4687C292.297 74.1162 292.544 73.8519 292.911 73.8519H298.513C298.84 73.8519 299.143 74.1403 299.143 74.5328C299.143 74.9252 298.84 75.2136 298.513 75.2136H293.382V80.0756L297.085 79.9715C297.412 79.9715 297.715 79.9475 298.042 79.9475C298.369 79.9475 298.633 80.2759 298.633 80.6444C298.633 80.9968 298.369 81.3012 298.042 81.3012C297.715 81.3012 297.412 81.2771 297.085 81.2771L293.382 81.197V86.6598H298.697C299.024 86.6598 299.327 86.9482 299.327 87.3327C299.327 87.7172 299.024 88.0135 298.697 88.0135H292.911Z" fill="black"></path><path d="M306.892 84.4411C306.892 83.9925 307.115 83.7041 307.427 83.7041C307.794 83.7041 307.937 84.0326 308.201 84.7054C308.552 85.5865 309.262 86.9242 311.472 86.9242C313.435 86.9242 314.824 85.7947 314.824 83.8083C314.824 81.8218 313.212 81.6135 311.345 81.4053C309.134 81.157 307.299 80.6844 307.299 77.6486C307.299 75.2296 309.015 73.6036 311.552 73.6036C314.473 73.6036 315.766 75.4298 315.766 76.7195C315.766 77.128 315.518 77.3362 315.271 77.3362C315.008 77.3362 314.864 77.0879 314.577 76.5352C314.17 75.7583 313.531 74.9332 311.616 74.9332C309.701 74.9332 308.424 75.9986 308.424 77.6406C308.424 79.7152 309.797 79.8754 311.552 80.0997C313.739 80.364 315.949 80.6924 315.949 83.7522C315.949 86.812 313.866 88.2458 311.433 88.2458C308.017 88.2458 306.892 85.3142 306.892 84.425V84.4411Z" fill="black"></path><path d="M258.933 36.5655C258.51 35.9407 257.361 35.5643 256.602 35.5643H248.471C248.471 35.5643 246.324 35.4521 246.324 39.369C246.324 44.1429 247.306 44.0708 247.306 44.0708H259.419C259.419 44.0708 265.356 45.3845 265.356 54.612C265.356 65.1691 259.419 65.1691 259.419 65.1691H247.306C247.306 65.1691 244.449 65.1531 242.207 62.7501C240.244 60.6435 238.999 55.2928 241.193 54.1794C243.388 53.066 244.417 54.2435 244.792 55.6132C245.877 59.5541 247.609 59.5061 247.609 59.5061L258.733 59.6022C258.733 59.6022 260.497 59.8665 260.441 54.4518C260.401 50.5349 258.733 50.3667 258.733 50.3667H246.755C246.755 50.3667 241.193 51.0716 241.193 39.8015C241.193 29.3405 246.755 29.8291 246.755 29.8291H258.087C258.821 29.8291 260.76 30.3017 261.335 30.7663C261.861 31.1908 262.978 32.16 263.872 34.1385C264.87 36.3572 264.678 39.6654 262.627 40.162C260.576 40.6586 259.555 38.8724 259.555 38.8724L258.933 36.5655Z" fill="#4875A9"></path><path d="M134.198 53.811C134.198 64.272 140.917 65.3293 140.917 65.3293H152.249C152.983 65.3293 154.044 64.9368 154.619 64.4802C155.146 64.0557 157.061 62.654 157.955 60.6755C158.952 58.4567 158.848 55.4931 156.79 54.9964C154.731 54.4998 153.717 56.286 153.717 56.286L152.648 58.5929C152.225 59.2177 151.515 59.5942 150.757 59.5942L142.897 59.7463C141.476 59.3138 140.487 58.0082 140.487 56.7666V39.369C140.487 37.1743 141.867 35.5883 143.734 35.5883C145.873 35.5883 150.757 35.5562 150.757 35.5562C151.515 35.5562 152.217 35.9327 152.648 36.5575L153.717 38.8644C153.717 38.8644 154.787 40.6426 156.79 40.154C158.793 39.6654 158.952 36.6937 157.955 34.4749C157.061 32.4964 155.146 31.1027 154.619 30.6702C154.044 30.2056 152.983 29.8211 152.249 29.8211H140.917C140.917 29.8211 134.198 31.0226 134.198 41.4836V53.8029V53.811Z" fill="#274160"></path></g><defs><clipPath id="clip0_9_2"><rect width="318" height="90" fill="white"></rect></clipPath></defs></svg>